<svg width="434" height="449" viewBox="0 0 434 449" fill="none" xmlns="http://www.w3.org/2000/svg">
<path d="M185.278 415.387C206.034 419.169 226.27 418.569 246.677 415.404C264.038 412.71 280.079 406.378 296.258 400.163C302.728 397.678 310.287 401.053 313.323 407.513C316.432 414.13 314.351 422.633 308.493 426.133C302.207 429.889 295.182 432.034 288.372 434.575C273.457 440.138 258.118 444.889 242.281 445.882C230.302 446.634 218.287 449.661 206.085 446.901C199.954 445.515 193.532 446.779 187.198 445.726C169.963 442.862 153.252 438.248 137.119 431.671C109.504 420.413 85.3258 403.906 64.4635 382.635C42.9983 360.749 26.8437 335.287 15.425 306.936C10.8642 295.612 7.94558 283.692 4.96356 271.778C-0.659411 249.313 -0.517916 226.562 0.652677 203.913C1.49446 187.625 5.79613 171.658 10.803 155.935C16.0732 139.384 22.8995 123.659 31.6692 108.758C48.9714 79.3595 71.533 54.8679 99.9461 35.7942C117.284 24.1555 135.89 15.2054 155.759 9.01369C167.096 5.48045 178.828 3.54908 190.575 1.5188C203.405 -0.698849 216.091 0.221424 228.828 0.0416986C239.428 -0.107868 249.758 2.44081 260.175 4.35833C271.347 6.41462 281.989 9.74377 292.557 13.6537C317.124 22.7431 338.972 36.3681 358.595 53.5576C363.005 57.4201 366.398 62.5711 364.273 69.0079C362.15 75.4391 358.133 80.0113 350.674 80.2628C347.382 80.3739 344.496 79.6784 341.91 77.435C325.978 63.6181 308.654 51.9784 289.101 43.8283C276.844 38.7187 264.231 34.9076 251.151 32.5086C238.193 30.1322 225.178 28.6682 212.011 29.2891C194.229 30.1276 176.766 32.7656 159.801 38.4945C116.483 53.1227 83.1936 80.3804 59.1162 118.893C47.3883 137.652 39.1381 157.956 33.6872 179.574C28.1893 201.378 27.5339 223.442 29.4402 245.384C30.9597 262.874 35.3465 280.088 42.1727 296.647C50.7354 317.418 61.6924 336.505 76.3951 353.493C97.3827 377.742 122.896 395.435 152.918 406.605C163.283 410.462 173.822 413.808 185.278 415.387Z" fill="black"/>
<path d="M271.083 118.798C259.333 112.85 247.547 108.547 234.826 106.045C223.478 103.813 212.054 103.473 201.117 105.008C182.287 107.652 164.743 114.696 149.243 126.445C128.918 141.852 116.077 162.043 107.635 185.852C100.797 205.14 100.425 224.724 103.352 244.322C105.528 258.9 111.617 272.509 119.524 285.139C134.272 308.697 154.678 324.927 181.21 333.481C190.407 336.446 199.618 339.005 209.372 338.958C210.034 338.955 210.719 338.989 211.356 339.153C217.818 340.814 220.845 347.78 219.526 357.896C218.768 363.709 214.37 367.521 208.19 367.602C184.719 367.907 163.688 360.284 143.782 348.37C120.308 334.32 102.526 315.021 89.7899 291.041C83.4162 279.04 78.9914 266.324 75.9683 252.919C71.7895 234.389 71.3705 215.694 74.7826 197.504C82.2092 157.911 101.831 125.213 134.739 101.075C152.468 88.0709 172.436 80.0418 193.834 76.4791C204.752 74.6612 215.979 72.7302 227.531 75.3612C234.674 76.988 242.29 76.973 249.575 78.8247C271.645 84.4342 291.409 94.5481 308.695 109.278C317.513 116.792 316.423 128.261 306.933 134.03C302.174 136.923 295.124 136.237 289.833 131.719C284.103 126.826 277.888 122.727 271.083 118.798Z" fill="black"/>
<path d="M433.003 208.937C434.56 227.727 433.74 245.886 430.223 263.986C426.166 284.863 420.186 305.029 410.894 324.228C397.846 351.19 380.375 374.802 358.346 395.06C352.676 400.274 342.401 400.066 337.551 394.739C331.707 388.321 332.455 377.549 339.363 371.406C351.994 360.172 362.93 347.471 372.155 333.342C384.486 314.456 393.405 293.978 399.049 272.177C404.804 249.943 406.529 227.066 403.883 204.449C400.957 179.431 394.83 154.908 383.391 132.068C378.103 121.508 381.611 112.35 391.957 108.664C398.079 106.483 405.063 108.899 408.378 114.536C414.482 124.913 418.32 136.253 421.745 147.692C424.72 157.63 427.566 167.665 429.508 177.841C431.431 187.915 433.616 198.06 433.003 208.937Z" fill="#FD6209"/>
<path d="M354.211 255.846C353.002 266.497 348.881 275.85 344.632 284.959C331.135 313.892 310.073 336.009 282.184 351.503C273.32 356.428 263.787 359.958 254.129 363.026C249.358 364.542 241.573 358.714 240.437 353.092C238.282 342.419 242.647 336.152 252.933 332.755C267.619 327.904 280.355 319.56 291.67 308.981C307.73 293.967 318.462 275.63 324.901 254.848C329.738 239.239 329.803 222.917 327.919 206.944C326.84 197.791 324.598 188.464 320.558 179.787C316.761 171.633 318.35 165.094 324.342 160.509C331.176 155.28 341.58 157.467 345.131 165.313C351.798 180.046 355.655 195.382 357.404 211.654C358.818 224.816 356.745 237.381 355.828 250.201C355.692 252.087 355.074 253.766 354.211 255.846Z" fill="#FD6408"/>
<path d="M202.56 161.298C202.575 159.145 202.558 157.477 202.617 155.813C202.903 147.686 206.635 143.854 214.177 143.913C221.039 143.967 225.687 148.68 225.74 156.119C225.854 172.28 226.292 188.465 225.568 204.593C225.193 212.962 227.544 218.395 234.533 223.159C245.914 230.915 256.586 239.71 267.594 248.018C272.219 251.509 273.572 255.591 272.253 261.552C271.057 266.955 266.806 268.779 262.373 270.322C260.393 271.011 258.547 269.999 256.776 268.876C246.644 262.449 237.692 254.431 227.876 247.575C221.204 242.915 214.894 237.732 208.157 233.174C203.917 230.306 202.492 226.636 202.517 221.764C202.619 201.771 202.561 181.778 202.56 161.298Z" fill="black"/>
</svg>
